<?xml version="1.0" standalone="no"?>
<!DOCTYPE svg PUBLIC "-//W3C//DTD SVG 20010904//EN"
 "http://www.w3.org/TR/2001/REC-SVG-20010904/DTD/svg10.dtd">
<svg version="1.0" xmlns="http://www.w3.org/2000/svg"
 width="70.000000pt" height="70.000000pt" viewBox="0 0 70.000000 70.000000"
 preserveAspectRatio="xMidYMid meet">
<metadata>
Created by potrace 1.14, written by Peter Selinger 2001-2017
</metadata>
<g transform="translate(0.000000,70.000000) scale(0.100000,-0.100000)"
fill="#000000" stroke="none">
<path d="M184 658 c-9 -13 -10 -18 -13 -38 0 -5 -12 -10 -25 -10 -43 0 -56
-24 -57 -108 -2 -398 -2 -396 33 -408 25 -8 434 -7 460 2 10 3 21 17 25 32 5
22 8 289 4 421 -1 36 -24 61 -57 61 -13 0 -25 5 -25 10 -1 6 -2 15 -3 21 0 7
-9 17 -18 23 -20 12 -38 0 -42 -30 -3 -17 -13 -19 -116 -19 -113 0 -114 0
-120 25 -7 28 -34 38 -46 18z m366 -199 c8 -11 5 -298 -3 -306 -9 -8 -376 -10
-390 -1 -9 5 -19 290 -11 309 4 8 398 7 404 -2z"/>
</g>
</svg>
